<?xml version="1.0" encoding="UTF-8" standalone="no"?>
<!DOCTYPE svg PUBLIC "-//W3C//DTD SVG 1.1//EN" "http://www.w3.org/Graphics/SVG/1.1/DTD/svg11.dtd">
<svg width="100%" height="100%" viewBox="0 0 30862 11112" version="1.1" xmlns="http://www.w3.org/2000/svg" xmlns:xlink="http://www.w3.org/1999/xlink" xml:space="preserve" xmlns:serif="http://www.serif.com/" style="fill-rule:evenodd;clip-rule:evenodd;stroke-linecap:round;stroke-linejoin:round;stroke-miterlimit:1.5;">
    <g transform="matrix(1.33333,0,0,1.33333,0,0)">
        <g transform="matrix(3.20038,0,0,3.26979,-13261.9,752.671)">
            <rect x="4143.87" y="-230.189" width="7232.28" height="2548.78" style="fill:none;"/>
            <clipPath id="_clip1">
                <rect x="4143.87" y="-230.189" width="7232.28" height="2548.78"/>
            </clipPath>
            <g clip-path="url(#_clip1)">
                <g id="Background" transform="matrix(0.312463,0,0,0.30583,4143.87,-230.189)">
                    <path id="Background1" serif:id="Background" d="M25255.3,1788.77L25255.3,6886.54C25255.3,8293.31 24113.2,9435.43 22706.4,9435.43L1555.61,9435.43C148.84,9435.43 -993.28,8293.31 -993.28,6886.54L-993.28,1788.77C-993.28,382 148.84,-760.12 1555.61,-760.12L22706.4,-760.12C24113.2,-760.12 25255.3,382 25255.3,1788.77Z" style="fill:rgb(255,242,216);stroke:rgb(235,235,235);stroke-width:4.17px;"/>
                    <path d="M22413.7,3225.9L22413.7,4639.57C22413.7,4706.57 22359.3,4760.96 22292.3,4760.96L22049.5,4760.96C21982.5,4760.96 21928.1,4706.57 21928.1,4639.57L21928.1,3225.9C21928.1,3158.9 21982.5,3104.51 22049.5,3104.51L22292.3,3104.51C22359.3,3104.51 22413.7,3158.9 22413.7,3225.9Z" style="fill:rgb(255,242,216);"/>
                    <path d="M21704,5099.42L21928.1,5099.42L21928.1,4820.52L21834.3,4997.96L21704,5099.42Z" style="fill:rgb(153,230,214);"/>
                    <path d="M21928.2,2999.83L21928.2,2747.1C21928.2,2747.1 21920.7,2677.22 21909,2647.92C21897.3,2618.62 21858.1,2571.28 21858.1,2571.28L21680.7,2366.66C21680.7,2366.66 21634.6,2326.3 21606.5,2312.18C21578.4,2298.05 21512.3,2281.9 21512.3,2281.9L20628.6,2987.46C20628.6,2987.46 20693.8,2990.1 20525,2973.8C20476.1,2969.07 20494,2814.53 20494,2814.53L20494,2347.51C20494,2347.51 20500,2156.07 20519.8,2123.06C20609.7,1973.08 21777.3,1082.17 21875.9,962.524C21927.4,899.986 21928.2,703.941 21928.2,703.941" style="fill:rgb(153,230,214);"/>
                    <path d="M-29.685,2881.73L1285.28,4177.5C1365.85,4256.9 1366.81,4386.78 1287.41,4467.36L999.679,4759.35C920.279,4839.92 790.398,4840.88 709.822,4761.48L-605.138,3465.71C-685.714,3386.31 -686.669,3256.43 -607.269,3175.85L-319.542,2883.86C-240.142,2803.28 -110.261,2802.33 -29.685,2881.73Z" style="fill:rgb(153,230,214);stroke:rgb(255,242,216);stroke-width:4.17px;"/>
                    <path d="M1320.31,4474.5L1320.31,5879.23C1320.31,6179.75 1076.33,6423.74 775.804,6423.74L-775.806,6423.74C-1076.33,6423.74 -1320.31,6179.75 -1320.31,5879.23L-1320.31,4474.5C-1320.31,4173.98 -1076.33,3929.99 -775.806,3929.99L775.804,3929.99C1076.33,3929.99 1320.31,4173.98 1320.31,4474.5Z" style="fill:rgb(153,230,214);"/>
                    <path d="M1969.92,6210.27L1969.92,8073.65C1969.92,8247.6 1828.69,8388.83 1654.74,8388.83L-355.53,8388.83C-529.482,8388.83 -670.71,8247.6 -670.71,8073.65L-670.71,6210.27C-670.71,6036.32 -529.482,5895.09 -355.53,5895.09L1654.74,5895.09C1828.69,5895.09 1969.92,6036.32 1969.92,6210.27Z" style="fill:rgb(153,230,214);"/>
                    <path d="M23704.7,6463.03L23704.7,7709.9C23704.7,8053.98 23425.3,8333.34 23081.3,8333.34L66.764,8333.34C-277.319,8333.34 -556.672,8053.98 -556.672,7709.9L-556.672,6463.03C-556.672,6118.95 -277.319,5839.59 66.764,5839.59L23081.3,5839.59C23425.3,5839.59 23704.7,6118.95 23704.7,6463.03Z" style="fill:rgb(153,230,214);"/>
                    <path d="M23785.5,5352.47L23785.5,5858.56C23785.5,5998.22 23672.1,6111.6 23532.5,6111.6L11352.5,6111.6C11212.8,6111.6 11099.4,5998.22 11099.4,5858.56L11099.4,5352.47C11099.4,5212.81 11212.8,5099.43 11352.5,5099.43L23532.5,5099.43C23672.1,5099.43 23785.5,5212.81 23785.5,5352.47Z" style="fill:rgb(153,230,214);"/>
                    <path d="M21336.5,5099.42L21928.2,4592.84L22210.3,5222.29L21581.1,5283.14L21336.5,5099.42Z" style="fill:rgb(153,230,214);"/>
                    <path d="M5996.22,5735.8C5996.22,5735.8 6650.39,6335.28 7059.11,6440.1C7125.61,6457.16 7294.98,6479.74 7294.98,6479.74L8419.99,6481.18C8419.99,6481.18 8626.37,6485.84 8689.54,6507.82C8777.14,6538.29 8890.54,6630.48 8890.54,6630.48L9327.09,7147.4C9327.09,7147.4 9381.19,7193.47 9409.58,7215.4C9670.48,7416.89 10580.2,7258.87 10580.2,7258.87C10580.2,7258.87 10679.8,7147.04 10724.2,7062.41C10827,6866.58 10852.4,6749.2 10852.4,6749.2L10894.2,5735.8" style="fill:rgb(255,242,216);"/>
                    <path d="M5780.09,5422.25L5916.63,5521.07C5954.31,5548.34 5962.76,5601.07 5935.49,5638.74L5528.24,6201.46C5500.97,6239.14 5448.24,6247.59 5410.56,6220.32L5274.02,6121.5C5236.34,6094.23 5227.89,6041.5 5255.16,6003.82L5662.41,5441.11C5689.68,5403.43 5742.41,5394.98 5780.09,5422.25Z" style="fill:rgb(153,230,214);"/>
                    <path d="M11323.2,5099.42L12267,5605.51C12267,5605.51 12371.7,5673.56 12472.4,5698.73C12583.6,5726.53 12769.6,5710.36 12769.6,5710.36L13723.4,5725.11L14895.7,5736.25C14895.7,5736.25 14981.2,5721.22 15019,5737.42C15059.1,5754.64 15136.6,5839.59 15136.6,5839.59L15449.8,6111.6C15449.8,6111.6 15972.2,6729.77 16072.5,6740.7C16175.4,6751.91 16351.7,6759.65 16359.8,6760.98L17996.2,6806.28L19414,6818.54C19414,6818.54 19549.8,6813.78 19605.4,6791.84C19668,6767.15 19789.6,6670.42 19789.6,6670.42L21336.5,5099.42" style="fill:rgb(255,242,216);"/>
                    <path d="M22036.2,3439.81L22036.2,3554.89C22036.2,3560.54 22031.6,3565.12 22026,3565.12L22005.5,3565.12C21999.9,3565.12 21995.3,3560.54 21995.3,3554.89L21995.3,3439.81C21995.3,3434.16 21999.9,3429.58 22005.5,3429.58L22026,3429.58C22031.6,3429.58 22036.2,3434.16 22036.2,3439.81Z" style="fill:rgb(255,242,216);"/>
                    <path d="M4290.6,5839.59C4482.78,6056.87 4788.75,6152.37 5043.26,6152.37C5297.77,6152.37 5891,5070.91 5891,5070.91" style="fill:rgb(255,242,216);"/>
                    <path d="M2742.93,5811.49C2979.51,5883.06 1837.6,5519.07 1837.6,5519.07L1705.14,6136.24L2067.54,6345.81C2067.54,6345.81 2406.15,5709.61 2742.93,5811.49Z" style="fill:rgb(255,242,216);"/>
                    <path d="M11323.2,3547.13L11323.2,6362.31C11323.2,6393.53 11297.9,6418.88 11266.6,6418.88L10932.2,6418.88C10900.9,6418.88 10875.6,6393.53 10875.6,6362.31L10875.6,3547.13C10875.6,3515.91 10900.9,3490.56 10932.2,3490.56L11266.6,3490.56C11297.9,3490.56 11323.2,3515.91 11323.2,3547.13Z" style="fill:rgb(153,230,214);"/>
                    <path d="M6114.81,1794.71L6114.81,6071.56C6114.81,6133.32 6064.67,6183.46 6002.91,6183.46L5779.1,6183.46C5717.34,6183.46 5667.2,6133.32 5667.2,6071.56L5667.2,1794.71C5667.2,1732.95 5717.34,1682.81 5779.1,1682.81L6002.91,1682.81C6064.67,1682.81 6114.81,1732.95 6114.81,1794.71Z" style="fill:rgb(153,230,214);"/>
                    <path d="M5654.25,5475C5667.8,5449.79 5675.94,5421.6 5667.2,5359.02C5661.78,5320.19 5699.06,5333.82 5699.06,5333.82L5704.72,5453.25L5675.48,5473.43" style="fill:rgb(153,230,214);"/>
                    <path d="M12185.7,1044.03L11323.2,3720.55L10875.6,3576.32L11738.1,899.796L12185.7,1044.03Z" style="fill:rgb(153,230,214);"/>
                    <path d="M12193.4,1024.84L12065.1,1422.93C12045.4,1484.06 11979.8,1517.7 11918.7,1498L11692.6,1425.14C11631.5,1405.44 11597.8,1339.83 11617.5,1278.7L11745.8,880.606C11765.5,819.479 11831.1,785.843 11892.2,805.54L12118.3,878.397C12179.5,898.094 12213.1,963.713 12193.4,1024.84Z" style="fill:rgb(153,230,214);"/>
                    <path d="M23469.6,-819.482L23469.6,5898.47C23469.6,6113.8 23294.8,6288.62 23079.4,6288.62L22299.1,6288.62C22083.8,6288.62 21909,6113.8 21909,5898.47L21909,-819.482C21909,-1034.81 22083.8,-1209.63 22299.1,-1209.63L23079.4,-1209.63C23294.8,-1209.63 23469.6,-1034.81 23469.6,-819.482Z" style="fill:rgb(153,230,214);"/>
                    <path d="M21875.6,956.836C23002.2,165.484 25255.4,-1417.21 25255.4,-1417.21L21861.4,0.006" style="fill:rgb(255,242,216);"/>
                    <path d="M2664.17,5316.56L1593.91,6386.82C1480.29,6500.44 1295.81,6500.44 1182.19,6386.82L770.472,5975.1C656.856,5861.48 656.856,5677 770.472,5563.38L1840.73,4493.12C1954.35,4379.51 2138.83,4379.51 2252.45,4493.12L2664.17,4904.84C2777.79,5018.46 2777.79,5202.94 2664.17,5316.56L2664.17,5316.56Z" style="fill:rgb(255,242,216);"/>
                    <path d="M1849.78,5850.69L1849.78,6726.54C1849.78,6887.21 1719.33,7017.66 1558.65,7017.66L976.393,7017.66C815.714,7017.66 685.264,6887.21 685.264,6726.54L685.264,5850.69C685.264,5690.01 815.714,5559.56 976.393,5559.56L1558.65,5559.56C1719.33,5559.56 1849.78,5690.01 1849.78,5850.69Z" style="fill:rgb(255,242,216);"/>
                    <path d="M2074.06,6368.7L2074.06,6801.35C2074.06,6920.74 1977.13,7017.67 1857.74,7017.67L1125.87,7017.67C1006.48,7017.67 909.543,6920.74 909.543,6801.35L909.543,6368.7C909.543,6249.31 1006.48,6152.38 1125.87,6152.38L1857.74,6152.38C1977.13,6152.38 2074.06,6249.31 2074.06,6368.7Z" style="fill:rgb(255,242,216);"/>
                    <path d="M2449.47,5881.24C2449.47,5881.24 3222.12,5410.78 3551.22,5409.19C3855.65,5407.71 4247.24,5607.98 4312.92,5881.24" style="fill:rgb(153,230,214);"/>
                </g>
                <g id="Grass" transform="matrix(0.312463,0,0,0.30583,4143.87,-230.189)">
                    <path id="Grass1" serif:id="Grass" d="M2074.06,6833.95C2074.06,6833.95 2048.1,6925.34 2016.11,6957.8C1984.13,6990.25 1906.68,7017.67 1906.68,7017.67L904.189,7017.67C904.189,7017.67 819.958,6982.91 757.74,6920.67C717.87,6880.79 685.259,6789.76 685.259,6789.76L685.259,5747.72C685.259,5747.72 696.438,5647.48 727.146,5611.64C832.998,5488.11 1320.37,5006.55 1320.37,5006.55L1320.31,4805.75L1320.31,4221.76C1320.31,4221.76 1458.46,4393.66 1478.6,4466.75C1495.06,4526.48 1436.31,4612.64 1438.51,4674.71C1440.55,4732.3 1490.77,4794.06 1491.8,4839.16C1492.68,4877.86 1441.07,4906.77 1444.69,4945.32C1456.47,5071.02 1428.52,5449.26 1562.53,5593.41C1696.53,5737.56 2075.7,5744.73 2326.98,5691.31C2621.32,5628.74 3106.82,5274.19 3328.59,5217.97C3443.62,5188.81 3735.8,5347.2 3735.8,5347.2C3735.8,5347.2 4136.76,5511.19 4312.92,5484.48C4489.07,5457.77 4619.37,5135.26 4792.73,5186.97C4966.09,5238.67 5430.88,5175.26 5595.32,5102.07C5759.76,5028.87 5667.2,5453.32 5667.2,5453.32L5506.48,5703.03L5285.4,5983.79C5285.4,5983.79 5216,6061.2 5180.01,6089.3C5144.47,6117.05 5069.46,6152.37 5069.46,6152.37C5069.46,6152.37 4985.12,6154.11 4868.03,6135.27C4759.21,6117.77 4619.59,6080.62 4557.23,6055.51C4427.77,6003.38 4312.92,5881.24 4312.92,5881.24C4312.92,5881.24 4261.87,5732.95 4205.54,5689.72C4109.72,5616.17 3871.78,5481.6 3738,5439.97C3631.32,5406.78 3510.2,5409.07 3402.84,5439.97C3228.12,5490.27 2863.68,5653.9 2689.66,5741.77C2572.69,5800.83 2452.28,5873.56 2358.72,5967.21C2258.43,6067.59 2074.06,6337.14 2074.06,6337.14L2074.06,6833.95L2074.06,6833.95Z" style="fill:rgb(235,230,140);"/>
                    <path d="M382.947,2287.75C382.947,2287.75 986.568,2954.49 1168.15,3072.08C1248.08,3123.83 1394.43,3032.84 1472.45,2993.24C1543.58,2957.13 1713,2882.37 1668.49,2816.17C1580,2684.52 1152.65,2392.38 942.815,2180.58C917.288,2154.81 894.979,2130.24 876.892,2107.28C767.921,1968.99 815.429,1626.28 685.259,1542.47C555.088,1458.66 146.255,1492.33 95.87,1604.45C45.485,1716.56 382.947,2287.75 382.947,2287.75Z" style="fill:rgb(235,230,140);"/>
                    <path d="M13846.2,5718.27C13846.2,5718.27 15069.8,5409.53 15446,5551.48C15822.1,5693.44 16005.1,6331.3 16184.2,6533.29C16286.2,6648.29 16602.3,6772.68 16602.3,6772.68L16028.7,6740.26L15056.8,5760.74L13846.2,5718.27L13846.2,5718.27Z" style="fill:rgb(235,230,140);stroke:rgb(235,230,140);stroke-width:4.17px;"/>
                    <path d="M11665,0C11665,0 11192,598.821 10850.3,628.418C10384.4,668.771 9258.52,346.858 8869.68,242.122C8732.06,205.051 8517.24,0 8517.24,0" style="fill:rgb(235,230,140);"/>
                    <path d="M5667.2,2528.47C5667.2,2528.47 5319.92,1987.6 5319.92,1778.47C5319.92,1574.15 5553.82,1304.91 5667.2,1273.72C5780.58,1242.53 5934.27,1494.95 6033.46,1558.11C6184.87,1654.53 6472.63,1723.61 6556.23,1833.25C6639.84,1942.88 6529.89,2135.86 6484.44,2228.95C6442.91,2314 6300.18,2348.26 6281.89,2432.52C6257.01,2547.16 6341.2,2807.61 6335.13,2916.78C6331.56,2980.99 6232.76,3277.43 6196.04,3358.97C6183.19,3387.51 6114.81,3406.04 6114.81,3406.04L6114.81,2276.38C6114.81,2276.38 6118.3,1840.02 6093.04,1731.55C6076.12,1658.89 5891.01,1682.81 5891.01,1682.81C5891.01,1682.81 5697.44,1665.07 5684.63,1738.57C5673.77,1800.87 5669.93,1987.98 5667.2,2152.15C5663.96,2346.94 5667.2,2528.47 5667.2,2528.47" style="fill:rgb(235,230,140);"/>
                    <path d="M21179.7,2540.96C21179.7,2540.96 20686.7,3321.62 20545.1,3346.54C20403.4,3371.47 20329.9,2690.5 20329.9,2690.5C20329.9,2690.5 20294.8,2197.61 20356.9,2038.81C20412.6,1896.46 20702.8,1737.7 20702.8,1737.7L21209.5,1517.59L20619.3,2043.2C20619.3,2043.2 20535.3,2108.57 20517.8,2142.13C20502,2172.42 20514.4,2244.55 20514.4,2244.55L20490.8,2930C20490.8,2930 20601.6,3005.8 20642.8,2974.35C20772.7,2875.22 21179.7,2540.96 21179.7,2540.96Z" style="fill:rgb(235,230,140);"/>
                    <path d="M15838.1,2104.81C15765.2,2234.01 15349.5,2390.32 15360.5,2539.49C15371.5,2688.66 15733.4,3072.92 15904.3,2999.83C16075.3,2926.73 16254,2292.23 16386.1,2100.9C16461.5,1991.65 16689.1,1937.07 16697,1851.88C16704.8,1766.7 16556.4,1601.82 16433,1589.8C16283.1,1575.21 15896.8,1678.48 15797.7,1764.32C15711.3,1839.12 15894.2,2005.26 15838.1,2104.81Z" style="fill:rgb(235,230,140);"/>
                </g>
            </g>
        </g>
    </g>
</svg>
